<svg width="50" height="50" viewBox="0 0 50 50" fill="none" xmlns="http://www.w3.org/2000/svg">
<path fill-rule="evenodd" clip-rule="evenodd" d="M25.001 5.98145C35.7695 5.98145 44.5 14.7124 44.5 25.4824C44.5 34.0979 38.914 41.4069 31.1645 43.9839C30.1885 44.1644 29.8335 43.5639 29.8335 43.0454C29.8335 42.5834 29.8505 41.3579 29.859 39.7289C35.2835 40.9084 36.428 37.1144 36.428 37.1144C37.315 34.8619 38.5935 34.2629 38.5935 34.2629C40.364 33.0539 38.459 33.0774 38.459 33.0774C36.502 33.2159 35.472 35.0864 35.472 35.0864C33.733 38.0664 30.9075 37.2039 29.797 36.7079C29.6205 35.4454 29.1155 34.5879 28.559 34.0994C32.8885 33.6074 37.4405 31.9344 37.4405 24.4624C37.4405 22.3329 36.681 20.5919 35.434 19.2284C35.6335 18.7374 36.304 16.7549 35.2425 14.0689C35.2425 14.0689 33.6055 13.5449 29.8795 16.0694C28.325 15.6349 26.6565 15.4179 24.998 15.4114C23.342 15.4184 21.673 15.6349 20.1165 16.0694C16.393 13.5449 14.7585 14.0689 14.7585 14.0689C13.6945 16.7549 14.3645 18.7374 14.5645 19.2284C13.3145 20.5919 12.5605 22.3329 12.5605 24.4624C12.5605 31.9519 17.119 33.6019 21.463 34.0829C20.764 34.6854 20.14 35.8779 20.14 37.6974C20.14 40.3029 20.1635 42.4054 20.1635 43.0449C20.1635 43.5674 19.813 44.1749 18.823 43.9814C11.082 41.3989 5.5 34.0954 5.5 25.4824C5.5 14.7124 14.2305 5.98145 25.001 5.98145V5.98145Z" fill="#697B03"/>
</svg>
