<svg width="50" height="50" viewBox="0 0 50 50" fill="none" xmlns="http://www.w3.org/2000/svg">
<path d="M9.174 7H40.9995C41.4696 7.1957 41.8918 7.49079 42.2371 7.86501C42.5824 8.23923 42.8426 8.68373 43 9.168V40.5645C42.5415 41.9775 41.219 43 39.6565 43H10.517C8.5745 43 7 41.4215 7 39.474V10.2585C6.99947 9.56124 7.20574 8.87949 7.59271 8.29947C7.97969 7.71946 8.52998 7.26723 9.174 7V7ZM16.0665 20.1925H16.7665C17.0265 20.1925 17.326 20.5335 17.326 20.774V29.4925C17.326 29.7335 17.026 30.094 16.7665 30.094H16.0665V32.118H22.344V30.094H21.0845V20.934H21.1445L24.2435 32.118H26.6425L29.7015 20.934H29.7615V30.094H28.442V32.118H33.7595V30.094H33.08C32.8 30.094 32.5 29.7335 32.5 29.4925V20.774C32.5 20.5335 32.8 20.1925 33.08 20.1925H33.7595V18.088H27.122L24.943 26.2255H24.883L22.684 18.088H16.0665V20.1925V20.1925Z" fill="#697B03"/>
</svg>
