<svg width="50" height="50" viewBox="0 0 50 50" fill="none" xmlns="http://www.w3.org/2000/svg">
<path fill-rule="evenodd" clip-rule="evenodd" d="M25.0002 6.88281C34.9897 6.88281 43.1172 15.0103 43.1172 24.9993C43.1172 34.9893 34.9897 43.1163 25.0002 43.1163C15.0107 43.1163 6.88319 34.9898 6.88319 24.9998C6.88319 15.0103 15.0102 6.88281 25.0002 6.88281V6.88281ZM13.0217 15.2373C10.79 17.9572 9.55676 21.3592 9.52719 24.8773C10.0377 24.7683 15.1537 23.7318 20.3027 24.3788C20.7207 23.3502 21.1743 22.3364 21.6627 21.3393C15.9412 19.0023 13.3477 15.6793 13.0217 15.2373ZM25.0002 9.54831C21.0682 9.54831 17.4747 11.0233 14.7417 13.4473C15.0202 13.8443 17.3497 16.9753 22.8522 19.0378C25.3877 14.3788 28.1987 10.5513 28.6262 9.97831C27.4387 9.69243 26.2216 9.5481 25.0002 9.54831V9.54831ZM31.5787 11.0193C31.1712 11.5783 28.4057 15.4108 25.8417 19.9683C33.0802 21.8908 39.4557 21.8623 40.1477 21.8538C39.1447 17.0523 35.9087 13.0613 31.5787 11.0193V11.0193ZM40.4752 25.0228C40.4752 24.8648 40.4722 24.7073 40.4672 24.5503C39.7902 24.5643 32.2907 24.6608 24.5632 22.3483C24.1204 23.2118 23.7021 24.0877 23.3087 24.9748C23.5132 25.0323 23.7167 25.0933 23.9187 25.1588C31.8997 27.7383 36.1467 34.7708 36.4972 35.3708C38.9682 32.6268 40.4752 28.9978 40.4752 25.0228V25.0228ZM25.0002 40.4988C28.4426 40.5023 31.787 39.3523 34.4992 37.2323C34.2202 36.6628 31.0867 30.6093 22.3587 27.5683L22.2562 27.5338C20.0837 33.1793 19.1857 37.9113 18.9552 39.2698C20.8669 40.0823 22.923 40.5004 25.0002 40.4988ZM16.3542 37.8518C16.5122 36.9103 17.3357 32.3803 19.3602 26.8183C14.5112 26.0423 10.2507 27.3128 9.72119 27.4793C10.4107 31.7858 12.8822 35.5043 16.3542 37.8518V37.8518Z" fill="#697B03"/>
</svg>
